<svg width="192" height="181" viewBox="0 0 192 181" fill="none" xmlns="http://www.w3.org/2000/svg">
<rect width="3029" height="503" transform="translate(-67 -163)" fill="#070707"/>
<path d="M35.5594 18.6331C37.7235 19.5906 44.9374 29.1659 47.9431 35.0307C51.1893 41.1349 55.1569 42.3318 71.5083 42.3318H86.0561L81.4874 50.9495L76.9186 59.6869L63.0921 60.046C41.4507 60.6445 43.8553 62.0807 28.4658 38.7411C21.0115 27.6099 15 18.1544 15 17.7953C15 16.7181 33.275 17.4362 35.5594 18.6331Z" fill="white"/>
<path d="M41.4506 16.4788C41.4506 17.4363 53.9546 35.8686 55.1569 36.5868C55.8783 37.0655 64.7753 37.5443 74.7544 37.5443H93.0294L75.7163 71.8954C66.0979 90.6868 58.2829 106.965 58.2829 107.922C58.2829 109.239 59.1245 109.478 61.6493 108.88C75.8365 105.768 92.5485 102.416 92.789 102.656C92.9092 102.776 92.3081 106.127 91.3462 109.957C88.4607 122.764 82.0885 158.432 82.5694 159.748C83.1706 161.424 86.6572 155.918 100.003 132.698C105.293 123.482 114.551 107.563 120.562 97.2698C126.694 86.9764 131.623 77.88 131.623 77.0421C131.623 76.0846 130.541 75.7255 128.377 76.2043C126.453 76.6831 118.639 78.3587 110.703 80.0344C102.888 81.7101 96.2757 82.907 95.915 82.6676C95.3138 82.0691 108.9 58.0113 122.125 36.108C128.016 26.5328 132.826 18.0347 132.826 17.3166C132.826 16.3591 118.999 16 87.1382 16C62.01 16 41.4506 16.2394 41.4506 16.4788Z" fill="white"/>
<path d="M139.391 18.6332C137.828 20.1892 133.379 26.5328 129.532 32.7567C125.685 38.9806 121.717 45.4438 120.515 47.1195C118.23 50.4708 113.301 59.8067 113.301 60.8839C113.301 61.243 118.471 61.4824 124.723 61.4824H136.024L139.391 57.4129C142.397 53.5828 146.124 47.8377 160.431 24.7374C162.956 20.5482 165 16.9575 165 16.5985C165 16.2394 159.95 16 153.698 16C143.479 16 141.916 16.2394 139.391 18.6332Z" fill="white"/>
</svg>
